<svg xmlns="http://www.w3.org/2000/svg" viewBox="0 0 201.43 120.86"><title>11</title><g id="Слой_2" data-name="Слой 2"><g id="Слой_12" data-name="Слой 12"><path d="M163.41,20.11l-15-15A17.69,17.69,0,0,0,136,0H64.58A17.79,17.79,0,0,0,52.12,5.13l-15,15H0v80.48H20.14a10,10,0,0,0,10-10h2.87l26.62,24a27.71,27.71,0,0,0,33.24,1.2,19.33,19.33,0,0,0,28.3-2.55A17.68,17.68,0,0,0,141.35,108l8.25-10.17A17.33,17.33,0,0,0,153,90.61h18.22a10.05,10.05,0,0,0,10,10h20.14V20.11ZM15.11,90.52a5,5,0,1,1,5-5A5.06,5.06,0,0,1,15.11,90.52Zm122.75-2.17-8.22,10.13a2.54,2.54,0,0,1-3.56.38l-7.52-6.11-9.44,11.49a4.22,4.22,0,0,1-5.67.76L91.87,95.08l-4.91,6a12.53,12.53,0,0,1-17.4,2.07L38.93,75.51H30.21V35.19H43.4L62.82,15.8l1.8-.72H82.46L70.28,26.25A22.52,22.52,0,0,0,68.9,58.13c4.65,5.1,19.26,13,31.94,1.39l2.58-2.36,34.06,27.63a2.58,2.58,0,0,1,.38,3.56Zm33.36-12.84H149.44A17.44,17.44,0,0,0,147,73.08L114.69,46.83l3.93-3.58a5,5,0,0,0,.32-7.12l-3.43-3.68a5.06,5.06,0,0,0-7.11-.32L91,48.06c-3,2.74-8.09,3-10.89,0a7.48,7.48,0,0,1,.38-10.67l20.65-18.91a12.48,12.48,0,0,1,8.49-3.31L136,15.11a2.35,2.35,0,0,1,1.73.72l19.42,19.39h14.07Zm15.11,15a5,5,0,1,1,5-5A5.06,5.06,0,0,1,186.33,90.52Z"/></g></g></svg>