<svg xmlns="http://www.w3.org/2000/svg" viewBox="0 0 160.48 160.48"><title>9</title><g id="Слой_2" data-name="Слой 2"><g id="Слой_12" data-name="Слой 12"><path d="M80.24,0a80.24,80.24,0,1,0,80.24,80.24A80.22,80.22,0,0,0,80.24,0ZM145,80.24a64.53,64.53,0,0,1-3.49,20.84h-6.57a5.13,5.13,0,0,1-3.69-1.55L120.85,89a3.86,3.86,0,0,1,0-5.41l4-4V76.71a3.65,3.65,0,0,0-1.06-2.58l-3-3A3.71,3.71,0,0,0,118.23,70h-5.18a3.66,3.66,0,0,1-2.59-6.25l3-3a3.68,3.68,0,0,1,2.59-1.07h10.36A3.67,3.67,0,0,0,130.1,56V53a3.67,3.67,0,0,0-3.65-3.66H114.57a5.19,5.19,0,0,0-5.18,5.18v1.45a5.18,5.18,0,0,1-3.52,4.92l-10.23,3.4a2.57,2.57,0,0,0-1.78,2.46v.71A2.6,2.6,0,0,1,91.27,70H86.1a2.6,2.6,0,0,1-2.59-2.59,2.6,2.6,0,0,0-2.59-2.59h-1a2.64,2.64,0,0,0-2.33,1.42l-3,6a5.17,5.17,0,0,1-4.63,2.85H62.77A5.19,5.19,0,0,1,57.59,70V61.8a5.2,5.2,0,0,1,1.52-3.66l6.51-6.5A8,8,0,0,0,68,46a2.6,2.6,0,0,1,1.78-2.46l12.94-4.31a3.68,3.68,0,0,0,1.42-.87l8.67-8.67a3.66,3.66,0,0,0-2.59-6.24H83.48L78.3,28.6v2.59a2.6,2.6,0,0,1-2.59,2.59H70.53A2.59,2.59,0,0,1,68,31.19V24.72a2.58,2.58,0,0,1,1-2.07l9.35-7c.62,0,1.23-.1,1.85-.1A64.78,64.78,0,0,1,145,80.24ZM42.09,45.65a3.64,3.64,0,0,1,1.07-2.58l8.22-8.22a3.66,3.66,0,0,1,6.25,2.59v5.17a3.68,3.68,0,0,1-1.07,2.59l-3,3a3.68,3.68,0,0,1-2.59,1.07H45.75A3.67,3.67,0,0,1,42.09,45.65Zm41.42,99.14v-2.3a5.19,5.19,0,0,0-5.18-5.17H71.8a22.45,22.45,0,0,1-11.46-3.82l-7.18-5.4a14.72,14.72,0,0,1-5.89-11.78v-7.74A14.7,14.7,0,0,1,54.42,96L68.3,87.65a14.91,14.91,0,0,1,7.57-2.1H86a14.79,14.79,0,0,1,9.58,3.52l14,12h5.92a10.36,10.36,0,0,1,7.32,3l5.59,5.6a5.93,5.93,0,0,0,4.18,1.71h4.33a64.58,64.58,0,0,1-53.35,33.36Z"/></g></g></svg>